<svg height="97" viewBox="0 0 729 97" width="729" xmlns="http://www.w3.org/2000/svg"><g fill="none" fill-rule="evenodd"><path d="m29.5208 94.0848c-.047029.0666194-.0551933.1531849-.021449.2274223s.1043331.125006.185449.1333777h13.12c1.7600236-.1143019 3.3637712-1.0498214 4.3296-2.5256l22.6648-34.6368c3.8932628-5.9823516 3.8932628-13.6976484 0-19.68l-22.6648-34.7024c-.9798275-1.47219975-2.5965924-2.39606544-4.3624-2.4928h-13.12c-.0811159.00837172-.1517047.0591403-.185449.13337771-.0337443.07423742-.02558.1608029.021449.22742229l22.2384 33.948c5.0492994 7.721108 5.0492994 17.698892 0 25.42z" fill="#e82829"/><path d="m.46 6.4432c.00585009-.48059718.15425337-.94863831.4264-1.3448 2.10803346-2.83628755 5.39005856-4.56176398 8.9216-4.6904h.492c3.7962134.14028533 7.2853256 2.12357017 9.348 5.3136l22.96 34.9976c2.6532039 4.0781784 2.6532039 9.3370216 0 13.4152l-22.96 34.9976c-2.0587217 3.1942119-5.5502155 5.1788505-9.348 5.3136h-.3936c-3.56899551-.0892291-6.89725332-1.8199232-9.02-4.6904-.27214663-.3961617-.42054991-.8642028-.4264-1.3448z" fill="#e82829"/><path d="m58.844 94.0848c-.0498148.071414-.054947.1648616-.0132525.2413014.0416944.0764398.1230403.1227174.2100525.1194986h15.7768c17.09429.4515336 33.086897-8.4101328 41.767052-23.1435487s8.680155-33.0170867 0-47.7505026c-8.680155-14.73341591-24.672762-23.59508231-41.767052-23.1435487h-15.7768c-.0870122-.00321881-.1683581.04305878-.2100525.11949861-.0416945.07643984-.0365623.16988734.0132525.24130139l20.1392 30.7336c6.363921 9.650637 6.363921 22.165363 0 31.816z" fill="#e82829"/><g fill="#000303"><path d="m200.54.08c58.1872 0 65.0424 29.2904 65.0424 45.92v3.7392c0 16.4-6.56 46.3792-65.1736 46.3792h-5.3464c-58.712 0-65.3048-30.0448-65.3048-46.3792v-3.7392c0-16.564 6.56-45.92 65.3048-45.92zm34.768 46.74c0-10.5944-6.1008-24.3048-37.4904-24.3048-31.9144 0-37.5232 13.7104-37.5232 24.3048v1.476c0 10.5944 6.1008 25.1904 37.5232 25.1904s37.4904-14.2024 37.4904-24.928z" fill-rule="nonzero"/><path d="m273.5856 1.6872h41.2624l32.0128 57.728 32.1768-57.728h39.7536v92.7256h-28.6672v-64.1568l-36.5392 64.1568h-15.5472l-36.5392-64.1568v64.1568h-27.9128z"/><path d="m459.66 94.4128h-29.0608v-92.7256h29.0608z"/><path d="m503.6776 1.6872 59.204 58.3512v-58.3512h28.6344v92.7256h-28.6344l-62.9432-61.5328v61.5328h-28.6672v-92.7256z"/><path d="m688.2432 77.4552h-56.1864l-8.3968 16.9576h-29.52l46.8712-92.7256h37.6544l49.5936 92.7256h-31.2912zm-28.5032-55.6944-17.1872 34.768h35.1616z" fill-rule="nonzero"/></g></g></svg>