<svg xmlns="http://www.w3.org/2000/svg" xmlns:xlink="http://www.w3.org/1999/xlink" viewBox="0 0 791.33 156.21"><defs><symbol id="a" viewBox="0 0 221.89 29.26"><path d="M8.86,28.66a.07.07,0,0,0,.05.11h4A1.71,1.71,0,0,0,14.23,28l6.91-10.56a5.5,5.5,0,0,0,0-6L14.23.86A1.71,1.71,0,0,0,12.9.1h-4a.07.07,0,0,0-.05.11l6.78,10.35a7.08,7.08,0,0,1,0,7.75Z" fill="#e82829"/><path d="M0,1.94a.74.74,0,0,1,.13-.41A3.55,3.55,0,0,1,2.85.1H3A3.55,3.55,0,0,1,5.85,1.72l7,10.67a3.75,3.75,0,0,1,0,4.09l-7,10.67A3.54,3.54,0,0,1,3,28.77H2.88A3.53,3.53,0,0,1,.13,27.34.74.74,0,0,1,0,26.93Z" fill="#e82829"/><path d="M17.8,28.66a.07.07,0,0,0,.06.11h4.81A14.34,14.34,0,1,0,22.67.1H17.86a.07.07,0,0,0-.06.11l6.14,9.37a8.81,8.81,0,0,1,0,9.7Z" fill="#e82829"/><path d="M61,0C78.74,0,80.83,8.93,80.83,14v1.14c0,5-2,14.14-19.87,14.14H59.33c-17.9,0-19.91-9.16-19.91-14.14V14c0-5.05,2-14,19.91-14Zm10.6,14.25c0-3.23-1.86-7.41-11.43-7.41-9.73,0-11.44,4.18-11.44,7.41v.45c0,3.23,1.86,7.68,11.44,7.68s11.43-4.33,11.43-7.6Z" fill="#000303"/><path d="M83.27.49H95.85l9.76,17.6L115.42.49h12.12V28.76H118.8V9.2L107.66,28.76h-4.74L91.78,9.2V28.76H83.27Z" fill="#000303"/><path d="M140,28.76h-8.86V.49H140Z" fill="#000303"/><path d="M153.42.49l18.05,17.79V.49h8.73V28.76h-8.73L152.28,10V28.76h-8.74V.49Z" fill="#000303"/><path d="M209.69,23.59H192.56L190,28.76h-9L195.29.49h11.48l15.12,28.27h-9.54ZM201,6.61l-5.24,10.6h10.72Z" fill="#000303"/></symbol></defs><title>Logo Horizontal</title><use width="221.89" height="29.26" transform="translate(31.46 30.08) scale(3.28)" xlink:href="#a"/></svg>